<svg height='100px' width='100px'  fill="#848484" xmlns="http://www.w3.org/2000/svg" xmlns:xlink="http://www.w3.org/1999/xlink" version="1.1" x="0px" y="0px" viewBox="0 0 52 52" style="enable-background:new 0 0 52 52;" xml:space="preserve"><style type="text/css">
	.st0{fill:none;stroke:#848484;stroke-width:2;stroke-linecap:round;stroke-linejoin:round;stroke-miterlimit:10;}
</style><g><g><path d="M38.0668945,21.7958984H13.972168c-0.5527344,0-1-0.4477539-1-1V3.081543c0-0.5522461,0.4472656-1,1-1h24.0947266    c0.5527344,0,1,0.4477539,1,1v17.7143555C39.0668945,21.3481445,38.6196289,21.7958984,38.0668945,21.7958984z     M14.972168,19.7958984h22.0947266V4.081543H14.972168V19.7958984z"></path></g><g><path d="M29.3100586,38.4003906h-7.3105469c-0.5527344,0-1-0.4477539-1-1v-8.0297852c0-0.5522461,0.4472656-1,1-1h7.3105469    c0.5527344,0,1,0.4477539,1,1v8.0297852C30.3100586,37.9526367,29.862793,38.4003906,29.3100586,38.4003906z     M22.9995117,36.4003906h5.3105469v-6.0297852h-5.3105469V36.4003906z"></path></g><g><path d="M30.0297852,45.918457c-0.4697266,0-0.8886719-0.3320313-0.9804688-0.8100586l-1.4560547-7.5180664    c-0.1054688-0.5419922,0.2490234-1.0668945,0.7910156-1.171875c0.546875-0.1079102,1.0673828,0.2504883,1.171875,0.7919922    l1.4560547,7.5180664c0.1054688,0.5419922-0.2490234,1.0668945-0.7910156,1.171875    C30.1567383,45.9125977,30.0922852,45.918457,30.0297852,45.918457z"></path></g><g><path d="M21.0317383,45.7255859c-0.0751953,0-0.1513672-0.0083008-0.2275391-0.0258789    c-0.5380859-0.125-0.8720703-0.6625977-0.7470703-1.2006836l1.703125-7.3251953    c0.125-0.5380859,0.6640625-0.8730469,1.2001953-0.7475586c0.5380859,0.125,0.8720703,0.6625977,0.7470703,1.2006836    l-1.703125,7.3251953C21.8969727,45.4135742,21.4858398,45.7255859,21.0317383,45.7255859z"></path></g><g><path d="M30.9594727,30.3706055h-10.609375c-1.6542969,0-3-1.3457031-3-3s1.3457031-3,3-3h10.609375c1.6542969,0,3,1.3457031,3,3    S32.6137695,30.3706055,30.9594727,30.3706055z M20.3500977,26.3706055c-0.5517578,0-1,0.4487305-1,1s0.4482422,1,1,1h10.609375    c0.5517578,0,1-0.4487305,1-1s-0.4482422-1-1-1H20.3500977z"></path></g><g><path d="M38.0668945,37.6704102c-0.5527344,0-1-0.4477539-1-1v-6.262207c0-1.2285156-0.9990234-2.2275391-2.2275391-2.2275391    h-1.8798828c-0.5527344,0-1-0.4477539-1-1s0.4472656-1,1-1h1.8798828c2.3310547,0,4.2275391,1.8964844,4.2275391,4.2275391    v6.262207C39.0668945,37.2226563,38.6196289,37.6704102,38.0668945,37.6704102z"></path></g><g><path d="M13.9692383,37.6704102c-0.5527344,0-1-0.4477539-1-1v-6.262207c0-2.3310547,1.8964844-4.2275391,4.2275391-4.2275391    h1.1523438c0.5527344,0,1,0.4477539,1,1s-0.4472656,1-1,1h-1.1523438c-1.2285156,0-2.2275391,0.9990234-2.2275391,2.2275391    v6.262207C14.9692383,37.2226563,14.5219727,37.6704102,13.9692383,37.6704102z"></path></g><g><path d="M26.0307617,30.3706055c-0.5527344,0-1-0.4477539-1-1v-4c0-0.5522461,0.4472656-1,1-1s1,0.4477539,1,1v4    C27.0307617,29.9228516,26.5834961,30.3706055,26.0307617,30.3706055z"></path></g><g><path d="M21.0307617,17.918457c-1.6542969,0-3-1.3457031-3-3V8.9589844c0-1.6542969,1.3457031-3,3-3s3,1.3457031,3,3v5.9594727    C24.0307617,16.5727539,22.6850586,17.918457,21.0307617,17.918457z M21.0307617,7.9589844c-0.5517578,0-1,0.4487305-1,1    v5.9594727c0,0.5512695,0.4482422,1,1,1s1-0.4487305,1-1V8.9589844    C22.0307617,8.4077148,21.5825195,7.9589844,21.0307617,7.9589844z"></path></g><g><path d="M31.0307617,17.918457c-1.6542969,0-3-1.3457031-3-3V8.9589844c0-1.6542969,1.3457031-3,3-3s3,1.3457031,3,3v5.9594727    C34.0307617,16.5727539,32.6850586,17.918457,31.0307617,17.918457z M31.0307617,7.9589844c-0.5517578,0-1,0.4487305-1,1    v5.9594727c0,0.5512695,0.4482422,1,1,1s1-0.4487305,1-1V8.9589844    C32.0307617,8.4077148,31.5825195,7.9589844,31.0307617,7.9589844z"></path></g><g><path d="M28.0200195,26.3706055c-0.5527344,0-1-0.4477539-1-1v-4.574707c0-0.5522461,0.4472656-1,1-1s1,0.4477539,1,1v4.574707    C29.0200195,25.9228516,28.5727539,26.3706055,28.0200195,26.3706055z"></path></g><g><path d="M24.0200195,26.3706055c-0.5527344,0-1-0.4477539-1-1v-4.574707c0-0.5522461,0.4472656-1,1-1s1,0.4477539,1,1v4.574707    C25.0200195,25.9228516,24.5727539,26.3706055,24.0200195,26.3706055z"></path></g><g><path d="M21.0307617,49.918457h-6c-0.5527344,0-1-0.4477539-1-1c0-2.7568359,2.2431641-5,5-5h2c0.5527344,0,1,0.4477539,1,1v4    C22.0307617,49.4707031,21.5834961,49.918457,21.0307617,49.918457z M16.2016602,47.918457h3.8291016v-2h-1    C17.7270508,45.918457,16.6147461,46.7543945,16.2016602,47.918457z"></path></g><g><path d="M36.0307617,49.918457h-6c-0.5527344,0-1-0.4477539-1-1v-4c0-0.5522461,0.4472656-1,1-1h2c2.7568359,0,5,2.2431641,5,5    C37.0307617,49.4707031,36.5834961,49.918457,36.0307617,49.918457z M31.0307617,47.918457h3.8291016    c-0.4130859-1.1640625-1.5253906-2-2.8291016-2h-1V47.918457z"></path></g><g><path d="M13.9692383,41.918457c-1.6201172,0-2.9384766-1.3183594-2.9384766-2.9389648s1.3183594-2.9394531,2.9384766-2.9394531    c1.6210938,0,2.9394531,1.3188477,2.9394531,2.9394531S15.590332,41.918457,13.9692383,41.918457z M13.9692383,38.0400391    c-0.5175781,0-0.9384766,0.4213867-0.9384766,0.9394531c0,0.5175781,0.4208984,0.9389648,0.9384766,0.9389648    s0.9394531-0.4213867,0.9394531-0.9389648C14.9086914,38.4614258,14.4868164,38.0400391,13.9692383,38.0400391z"></path></g><g><path d="M38.0307617,41.918457c-1.6210938,0-2.9394531-1.3183594-2.9394531-2.9389648s1.3183594-2.9394531,2.9394531-2.9394531    c1.6201172,0,2.9384766,1.3188477,2.9384766,2.9394531S39.6508789,41.918457,38.0307617,41.918457z M38.0307617,38.0400391    c-0.5175781,0-0.9394531,0.4213867-0.9394531,0.9394531c0,0.5175781,0.421875,0.9389648,0.9394531,0.9389648    s0.9384766-0.4213867,0.9384766-0.9389648C38.9692383,38.4614258,38.5483398,38.0400391,38.0307617,38.0400391z"></path></g></g></svg>